<svg width="216" height="324" viewBox="0 0 216 324" fill="none" xmlns="http://www.w3.org/2000/svg">
<path d="M82.3162 308.24H82.7562H83.2962C83.2962 313.14 86.4962 315.14 89.2762 315.1C92.9162 315.05 95.9762 311.98 96.0362 308.34C96.0962 304.51 92.9962 301.38 89.1762 301.38C87.3162 301.38 84.3062 303.23 82.3462 304.59C81.0262 305.5 79.6562 306.35 78.2462 307.1C76.6662 307.94 75.0262 308.67 73.3362 309.25C72.3462 309.59 71.3362 309.89 70.3262 310.15C67.3862 310.9 64.3562 311.3 61.3062 311.31C61.2562 311.31 61.2062 311.31 61.1562 311.31C36.0362 311.31 15.7862 290.47 16.7462 265.14C17.6362 241.83 36.8262 222.96 60.1462 222.44C67.0662 222.29 73.6462 223.72 79.5262 226.39L87.7862 229.87L99.6162 234.86L140.826 251.88C158.306 259.1 178.336 250.78 185.556 233.3C192.776 215.82 184.456 195.79 166.976 188.57C162.906 186.89 158.596 186.03 154.276 185.99C149.956 185.95 145.626 186.73 141.526 188.33L117.006 197.9L80.7362 213.85C74.2062 216.05 67.1762 217.19 59.8662 217.04C27.1462 216.36 0.466176 189.51 0.00617619 156.78C-0.473824 122.6 27.0862 94.74 61.1562 94.74L62.2662 94.7C69.7062 94.83 77.2462 96.33 84.5362 99.34L147.256 125.48C148.286 125.91 149.346 126.26 150.436 126.49C151.526 126.73 152.626 126.86 153.746 126.86C153.766 126.86 153.776 126.86 153.796 126.86C163.946 126.86 172.046 118.07 170.896 107.68C170.046 100 163.966 93.71 156.316 92.63C152.296 92.06 148.486 92.88 145.316 94.69L138.846 97.65C137.036 98.48 135.146 99.13 133.216 99.58C131.286 100.03 129.306 100.27 127.306 100.27H127.226C109.226 100.3 94.6062 85.72 94.6062 67.71V53.17L94.6262 53.16C89.8162 51.51 86.3562 46.96 86.3562 41.6C86.3562 41.59 86.3562 41.59 86.3562 41.58C86.3562 41.06 86.4162 40.54 86.5162 40.03C86.6262 39.49 86.7962 38.96 87.0062 38.44C89.2762 32.8 98.8562 6.9 98.8562 6.9C99.8362 2.93 103.416 0 107.686 0C111.956 0 115.536 2.93 116.526 6.89L122.716 22.64C122.626 22.66 126.946 34.02 128.536 38.08C128.736 38.58 128.896 39.1 129.016 39.63C129.136 40.17 129.216 40.72 129.246 41.27C129.256 41.38 129.256 41.49 129.256 41.58C129.256 47.06 125.646 51.7 120.676 53.26V67.68C120.676 71.28 123.596 74.2 127.196 74.2C129.896 74.2 136.466 71.56 139.536 70.26C140.226 69.97 140.916 69.69 141.616 69.44C142.316 69.19 143.026 68.96 143.736 68.76C170.346 61.4 197.706 80.8 198.216 108.85C198.226 109.29 198.226 109.74 198.216 110.18C197.946 133.93 178.686 153.49 154.936 154.09C147.716 154.27 140.886 152.74 134.796 149.86L71.6562 125.54C67.0862 123.78 62.4162 123.1 57.8962 123.35C41.6462 124.25 27.3462 137.12 26.7562 154.72C26.7462 155.11 26.7362 155.51 26.7362 155.9C26.7362 156.3 26.7462 156.69 26.7562 157.08C27.2862 172.76 38.6762 184.74 52.6762 187.83C58.6462 189.15 65.0862 188.86 71.3662 186.55L118.886 169.06C120.656 168.41 122.416 167.71 124.156 166.97C125.846 166.26 127.516 165.52 129.186 164.76C137.496 160.99 146.796 159.02 156.586 159.36C188.956 160.47 215.096 187.16 215.586 219.54C216.096 253.75 188.526 281.63 154.436 281.63L152.636 281.77C145.496 281.54 138.266 280.04 131.266 277.15L89.3562 259.85L67.8062 250.76C65.9362 250.06 63.9062 249.68 61.7962 249.68C51.9862 249.68 44.0962 257.89 44.6162 267.81C45.0662 276.3 51.8762 283.34 60.3562 284.03C63.9662 284.33 67.3762 283.5 70.2562 281.87C70.9062 281.5 71.5462 281.13 72.1962 280.77C72.7362 280.47 73.2862 280.17 73.8362 279.89L76.0362 278.68C80.4462 276.71 85.3762 275.7 90.5462 275.92C109.536 276.71 123.106 295.23 113.666 314.11C105.836 329.8 82.3162 323.92 82.3162 308.24Z" fill="#232323"/>
<path d="M62.4762 141.15C70.7162 141.15 77.4162 147.85 77.4162 156.1C77.4162 164.34 70.7162 171.04 62.4762 171.04C54.2362 171.04 47.5362 164.34 47.5362 156.1C47.5262 147.86 54.2262 141.15 62.4762 141.15ZM62.4762 139.19C53.1362 139.19 45.5762 146.76 45.5762 156.09C45.5762 165.42 53.1462 172.99 62.4762 172.99C71.8162 172.99 79.3762 165.42 79.3762 156.09C79.3762 146.76 71.8062 139.19 62.4762 139.19Z" fill="#FF941C"/>
<path d="M154.436 237.4C163.775 237.4 171.346 229.829 171.346 220.49C171.346 211.151 163.775 203.58 154.436 203.58C145.097 203.58 137.526 211.151 137.526 220.49C137.526 229.829 145.097 237.4 154.436 237.4Z" fill="#FF941C"/>
</svg>
