<svg width="89" height="174" viewBox="0 0 89 174" fill="none" xmlns="http://www.w3.org/2000/svg">
<path d="M44.32 173.68C68.7973 173.68 88.64 169.051 88.64 163.34C88.64 157.629 68.7973 153 44.32 153C19.8427 153 0 157.629 0 163.34C0 169.051 19.8427 173.68 44.32 173.68Z" fill="#FF941C"/>
<path d="M44.32 61.61C51.6157 61.61 57.53 60.231 57.53 58.53C57.53 56.829 51.6157 55.45 44.32 55.45C37.0243 55.45 31.11 56.829 31.11 58.53C31.11 60.231 37.0243 61.61 44.32 61.61Z" fill="#A85F26"/>
<path d="M54.52 62.18C51.78 62.95 48.16 63.37 44.31 63.37C40.46 63.37 36.84 62.95 34.1 62.18C32.29 61.67 30.99 61.05 30.21 60.33V163.68C30.21 164.8 35.19 166.97 44.31 166.97C53.43 166.97 58.41 164.8 58.41 163.68V60.33C57.63 61.06 56.34 61.68 54.52 62.18Z" fill="#A85F26"/>
<path d="M43.49 0C43.49 0 48.92 11.84 46.72 19.18C46.2 20.93 44.63 21.77 43.13 21.64C41.91 21.54 40.75 20.81 40.22 19.43C39.37 17.2 38.93 14.25 40.09 10.84C40.09 10.84 31.32 16.27 35.81 30.1C35.81 30.1 34.35 30.4 33.11 28.75C31.51 26.62 30.16 22.21 31.51 19.96C31.51 19.96 25.97 26.99 25.97 35.86C25.97 44.73 35.41 50.4 43.44 50.4C56.27 50.4 59.51 44.62 61.06 37.44C63.46 26.35 58.68 21.01 57.28 19.49C57.28 19.49 56.27 26.36 53.87 26.36C53.87 26.36 57.07 12.78 43.49 0Z" fill="#FF941C"/>
<path d="M44.3201 59.75C43.6301 59.75 43.0701 59.19 43.0701 58.5V45.09C43.0701 44.4 43.6301 43.84 44.3201 43.84C45.0101 43.84 45.5701 44.4 45.5701 45.09V58.5C45.5701 59.19 45.0101 59.75 44.3201 59.75Z" fill="#A85F26"/>
</svg>
