<svg width="176" height="229" viewBox="0 0 176 229" fill="none" xmlns="http://www.w3.org/2000/svg">
<path d="M175.385 22.0387L31.5878 0L2.2855e-05 206.102L143.797 228.141L175.385 22.0387Z" fill="#FFDFD1"/>
<path d="M130.394 211.361L17.684 194.081L17.7839 193.461L44.7839 17.3013L157.494 34.5813L157.394 35.2013L130.394 211.361ZM19.1139 193.041L129.354 209.941L156.074 35.6413L45.8339 18.7413L19.1139 193.041Z" fill="white"/>
<path d="M72.1439 156.071L72.2939 156.091L72.4839 156.121C72.2239 157.821 73.2238 158.681 74.1938 158.821C75.4538 159.001 76.6839 158.101 76.8939 156.841C77.1139 155.521 76.2039 154.261 74.8839 154.061C74.2439 153.961 73.0939 154.441 72.3439 154.811C71.8339 155.061 71.3239 155.281 70.7939 155.461C70.2039 155.671 69.5939 155.831 68.9739 155.951C68.6139 156.021 68.2439 156.071 67.8839 156.101C66.8239 156.201 65.7538 156.181 64.6938 156.021C64.6738 156.021 64.6639 156.011 64.6439 156.011C55.9339 154.671 50.0138 146.371 51.6938 137.641C53.2438 129.601 60.8939 124.081 69.0139 125.141C71.4239 125.451 73.6239 126.301 75.5239 127.541L78.2038 129.191L82.0439 131.551L95.4339 139.641C101.114 143.071 108.504 141.251 111.934 135.571C115.364 129.891 113.544 122.501 107.864 119.071C106.544 118.271 105.094 117.741 103.594 117.501C102.094 117.261 100.554 117.301 99.0439 117.631L90.0339 119.651L76.6039 123.251C74.2239 123.671 71.7238 123.691 69.1938 123.251C57.8838 121.281 50.0639 110.551 51.6339 99.1712C53.2839 87.2912 64.3239 79.0913 76.1339 80.9013L76.5239 80.9413C79.0939 81.3813 81.6339 82.3012 84.0039 83.7312L104.364 96.1313C104.694 96.3313 105.044 96.5113 105.414 96.6513C105.784 96.7913 106.154 96.8913 106.544 96.9613C106.554 96.9613 106.554 96.9613 106.564 96.9613C110.084 97.5013 113.364 94.8813 113.514 91.2213C113.624 88.5113 111.854 86.0113 109.254 85.2213C107.894 84.8113 106.524 84.8912 105.324 85.3512L102.924 86.0313C102.254 86.2213 101.564 86.3513 100.864 86.4013C100.174 86.4513 99.4739 86.4313 98.7739 86.3313H98.7439C92.4939 85.3813 88.2039 79.5513 89.1639 73.3113L89.9339 68.2613H89.9438C88.3638 67.4313 87.4038 65.6713 87.6938 63.8113C87.6938 63.8113 87.6938 63.8113 87.6938 63.8013C87.7238 63.6213 87.7738 63.4413 87.8338 63.2713C87.9038 63.0913 87.9838 62.9113 88.0838 62.7513C89.1738 60.9113 93.8739 52.4413 93.8739 52.4413C94.4239 51.1213 95.8239 50.2913 97.3039 50.5213C98.7839 50.7513 99.8739 51.9513 100.004 53.3813L101.314 59.1712C101.284 59.1712 102.174 63.3413 102.514 64.8313C102.554 65.0213 102.584 65.2013 102.594 65.3913C102.604 65.5813 102.604 65.7813 102.584 65.9713C102.584 66.0113 102.574 66.0513 102.574 66.0813C102.284 67.9813 100.784 69.4012 98.9839 69.6712L98.2139 74.6712C98.0239 75.9212 98.8839 77.0913 100.134 77.2813C101.074 77.4213 103.484 76.8613 104.624 76.5713C104.874 76.5113 105.134 76.4513 105.384 76.4013C105.644 76.3513 105.894 76.3113 106.154 76.2813C115.774 75.1413 124.234 83.3213 122.914 93.0813C122.894 93.2313 122.874 93.3912 122.844 93.5412C121.484 101.761 113.774 107.521 105.504 106.471C102.994 106.151 100.704 105.251 98.7439 103.931L78.1439 92.1413C76.6539 91.2913 75.0739 90.8013 73.4839 90.6513C67.8039 90.1013 62.1539 93.8013 61.0139 99.8713C60.9839 100.011 60.9638 100.141 60.9438 100.281C60.9238 100.421 60.9039 100.551 60.8839 100.691C60.2339 106.161 63.5439 110.911 68.2339 112.731C70.2339 113.511 72.4839 113.751 74.7839 113.281L92.1938 109.741C92.8438 109.611 93.4839 109.461 94.1339 109.301C94.7539 109.141 95.3739 108.971 95.9939 108.801C99.0739 107.931 102.404 107.751 105.784 108.381C116.954 110.491 124.594 121.131 123.044 132.391C121.404 144.281 110.364 152.481 98.5339 150.671L97.9039 150.621C95.4339 150.161 93.0139 149.261 90.7439 147.881L77.1339 139.651L70.1439 135.351C69.5339 135.011 68.8539 134.771 68.1139 134.661C64.7139 134.141 61.5438 136.571 61.1938 140.031C60.8938 143.001 62.8839 145.801 65.7839 146.491C67.0239 146.781 68.2438 146.681 69.3338 146.271C69.5738 146.181 69.8239 146.081 70.0639 145.991C70.264 145.911 70.4739 145.841 70.6839 145.771L71.5139 145.471C73.1439 145.021 74.9138 144.931 76.6938 145.281C83.2338 146.561 86.9639 153.711 82.6839 159.751C79.1639 164.801 71.3139 161.511 72.1439 156.071Z" fill="#FF941C"/>
<path d="M74.1439 97.0713C77.0039 97.5113 78.9739 100.191 78.5339 103.051C78.0939 105.911 75.414 107.881 72.554 107.441C69.694 107.001 67.7239 104.321 68.1639 101.461C68.6039 98.6013 71.2939 96.6313 74.1439 97.0713ZM74.2539 96.3913C71.0139 95.8913 67.9939 98.1213 67.4939 101.351C66.9939 104.591 69.2239 107.611 72.4539 108.111C75.6939 108.611 78.7139 106.381 79.2139 103.151C79.7139 99.9113 77.4939 96.8913 74.2539 96.3913Z" fill="#A85F26"/>
<path d="M101.824 135.401C105.099 135.401 107.754 132.746 107.754 129.471C107.754 126.196 105.099 123.541 101.824 123.541C98.5488 123.541 95.8939 126.196 95.8939 129.471C95.8939 132.746 98.5488 135.401 101.824 135.401Z" fill="#A85F26"/>
<path d="M167.096 28.1192L158.703 26.8329L157.417 35.2253L165.809 36.5115L167.096 28.1192Z" fill="white"/>
<path d="M46.0709 9.56828L37.6786 8.28204L36.3924 16.6744L44.7847 17.9607L46.0709 9.56828Z" fill="white"/>
<path d="M138.814 212.657L130.421 211.371L129.135 219.763L137.528 221.049L138.814 212.657Z" fill="white"/>
<path d="M17.779 194.105L9.3866 192.819L8.10036 201.211L16.4927 202.497L17.779 194.105Z" fill="white"/>
<path d="M20.6005 175.428L20.4111 176.664L132.448 193.835L132.637 192.599L20.6005 175.428Z" fill="white"/>
</svg>
