<svg width="132" height="185" viewBox="0 0 132 185" fill="none" xmlns="http://www.w3.org/2000/svg">
<path d="M65.56 130.67C58.06 130.67 51.98 136.75 51.98 144.24C51.98 151.74 58.06 157.82 65.56 157.82C73.06 157.82 79.14 151.74 79.14 144.24C79.13 136.75 73.05 130.67 65.56 130.67Z" fill="#FF941C"/>
<path d="M114.81 71.49C114.81 71.49 111.11 96.66 102.32 96.66C102.32 96.66 114.04 46.87 64.24 0C64.24 0 84.14 43.41 76.09 70.34C74.17 76.75 68.42 79.82 62.92 79.37C58.47 79.01 54.18 76.34 52.24 71.26C49.13 63.1 47.5 52.28 51.75 39.78C51.75 39.78 19.6 59.7 36.06 110.4C36.06 110.4 30.69 111.49 26.16 105.44C20.29 97.62 15.35 81.48 20.3 73.22C20.3 73.22 0 99 0 131.51C0 164.02 34.6 184.81 64.06 184.81C111.1 184.81 122.98 163.62 128.67 137.31C137.47 96.67 119.97 77.07 114.81 71.49ZM65.56 163.48C52.19 163.48 40.65 155.61 35.33 144.25C40.65 132.89 52.18 125.02 65.56 125.02C78.93 125.02 90.47 132.89 95.79 144.25C90.46 155.61 78.93 163.48 65.56 163.48Z" fill="#FF941C"/>
</svg>
