<svg width="136" height="126" viewBox="0 0 136 126" fill="none" xmlns="http://www.w3.org/2000/svg">
<path d="M109.125 1.7725L35.9249 74.9725C26.4949 71.1925 15.305 73.1225 7.665 80.7625C-2.555 90.9825 -2.555 107.553 7.665 117.773C17.885 127.993 34.4549 127.993 44.6749 117.773C54.4549 107.993 54.865 92.4125 45.945 82.1325L86.975 41.1025L99.205 53.3325C101.575 55.7025 105.425 55.7025 107.795 53.3325C110.165 50.9625 110.165 47.1125 107.795 44.7425L95.565 32.5125L104.815 23.2625L125.635 44.0825C128.005 46.4525 131.855 46.4525 134.225 44.0825C136.595 41.7125 136.595 37.8625 134.225 35.4925L113.405 14.6725L117.705 10.3725C120.075 8.00254 120.075 4.15251 117.705 1.78251C115.335 -0.587487 111.495 -0.597497 109.125 1.7725ZM38.065 111.173C31.495 117.743 20.845 117.743 14.265 111.173C7.69498 104.603 7.69498 93.9525 14.265 87.3725C20.835 80.8025 31.485 80.8025 38.065 87.3725C44.635 93.9425 44.635 104.603 38.065 111.173Z" fill="#A85F26"/>
</svg>
