<svg width="196" height="282" viewBox="0 0 196 282" fill="none" xmlns="http://www.w3.org/2000/svg">
<path d="M194.852 180.417C190.002 178.477 165.772 197.867 138.632 208.527C125.552 213.667 120.812 219.247 119.402 223.657C118.942 221.557 118.462 219.367 117.962 217.107C121.492 215.597 124.742 202.207 151.232 193.987C179.342 185.267 180.312 160.067 180.312 157.157C180.312 154.247 180.312 152.307 175.462 162.007C170.612 171.697 159.952 179.456 137.662 189.146C120.852 196.456 117.822 208.727 117.342 214.317C116.672 211.267 115.972 208.107 115.252 204.867C115.962 203.347 116.902 200.557 118.272 196.896C121.182 189.146 144.442 175.576 144.442 175.576C180.302 152.316 182.242 136.807 183.212 129.047C184.182 121.297 180.302 125.167 178.362 130.987C176.422 136.807 149.282 157.157 127.962 172.667C117.622 180.187 113.892 187.937 112.802 193.927C111.992 190.307 111.162 186.647 110.332 182.997C114.302 176.897 124.252 160.157 143.472 151.347C166.732 140.687 180.302 111.607 180.302 101.917C180.302 92.2265 177.392 98.0365 172.552 105.797C167.702 113.547 133.782 140.687 118.272 155.227C111.752 161.337 109.012 167.617 108.012 172.847C107.142 169.077 106.282 165.357 105.442 161.747C109.212 156.297 118.882 145.497 130.882 138.747C146.392 130.027 156.082 114.517 161.902 104.827C167.722 95.1365 168.682 76.7165 164.812 76.7165C160.932 76.7165 158.022 87.3765 153.182 99.0065C148.332 110.637 127.012 127.117 112.472 141.657C107.552 146.577 104.972 150.827 103.692 154.297C103.372 152.947 103.052 151.627 102.742 150.317C105.832 144.987 110.802 130.297 120.222 123.237C131.852 114.517 143.482 99.0065 148.332 76.7065C153.182 54.4165 146.392 40.8465 144.452 55.3865C142.512 69.9265 126.032 95.1265 110.532 112.577C102.872 121.187 100.422 130.977 99.8919 138.687C97.7719 130.267 96.0517 123.967 95.0217 121.297C94.4417 119.777 93.6717 117.777 92.7817 115.437C94.2517 115.157 91.8317 113.147 106.652 100.937C123.132 87.3665 142.512 32.1165 140.572 32.1165C138.632 32.1165 128.942 45.6865 108.582 78.6465C95.2418 100.247 92.3118 109.357 91.8718 113.067C91.0118 110.787 90.0518 108.267 89.0518 105.617C89.1418 105.727 89.2018 105.787 89.2018 105.787C88.2318 101.907 96.9518 82.5265 107.622 61.1965C118.282 39.8765 112.472 22.4265 109.562 22.4265C106.652 22.4265 108.592 33.0865 105.682 41.8165C102.772 50.5365 92.1118 67.9865 84.3618 79.6165C82.8418 81.8965 82.1117 84.2865 81.9118 86.6665C80.1018 81.8665 78.3918 77.3165 76.9518 73.4965C79.5618 70.8165 85.5118 64.0365 89.2118 54.4165C94.0618 41.8165 89.2118 9.82652 86.3018 9.82652C83.3918 9.82652 88.2418 37.9365 82.4218 46.6565C78.4518 52.6065 74.0318 57.6565 73.4818 64.2765C73.1418 63.3765 72.9518 62.8665 72.9518 62.8665L72.8618 63.6065C71.2218 53.7265 66.3918 35.7765 52.3718 22.4265C32.0218 3.03653 19.4118 -0.833478 18.4518 0.136522C17.4818 1.10652 29.1118 10.7965 37.8418 26.3065C46.5718 41.8165 70.8018 72.8365 71.7618 72.8365C71.7618 72.8365 74.0718 79.3565 77.2118 88.5665C71.7718 84.3165 60.5717 76.4465 51.4117 75.7365C38.8117 74.7665 5.85181 72.8265 5.85181 77.6765C5.85181 82.5265 18.4518 72.8265 45.5918 89.3065C65.5018 101.396 78.1018 105.127 81.1018 100.137C82.7818 105.207 84.5318 110.547 86.1818 115.777C79.3518 110.217 61.6117 97.6065 39.7817 96.0965C11.6717 94.1565 8.76185 95.1265 8.76185 97.0665C8.76185 99.0065 34.9318 99.9765 53.3518 111.607C67.9818 120.847 84.4319 127.627 88.6419 123.717C90.4719 129.777 92.0518 135.357 93.0918 139.717C93.2818 140.507 93.4818 141.377 93.7018 142.307C89.3018 139.277 80.4818 134.867 66.9118 128.087C47.5218 118.396 22.3218 113.547 15.5418 114.517C8.75175 115.487 -0.938171 111.607 44.6218 132.937C77.6018 148.377 90.2618 148.067 94.7318 146.717C95.6218 150.497 96.6618 154.967 97.8118 159.867C95.0118 157.617 90.5319 154.547 83.3919 150.377C60.1319 136.807 36.8618 136.807 19.4218 137.777C1.97176 138.747 -0.928248 142.627 7.79175 141.657C16.5118 140.687 46.5618 150.377 68.8518 159.107C84.8818 165.377 94.9018 166.137 99.2618 166.067C100.302 170.527 101.402 175.217 102.522 180.007C96.5917 174.337 82.3318 163.187 60.1218 161.047C30.0718 158.137 -0.938267 167.826 0.021733 169.766C0.991733 171.706 27.1618 166.857 51.3918 173.646C72.4219 179.536 96.3718 186.147 103.592 184.627C104.322 187.747 105.062 190.887 105.802 193.997C99.0718 190.547 84.6117 185.277 59.1517 185.277C21.3517 185.277 12.6218 191.097 12.6218 193.027C12.6218 194.967 56.2417 190.117 74.6517 196.907C88.9017 202.157 101.402 202.756 107.232 200.076C108.062 203.596 108.882 207.047 109.672 210.347C103.502 207.497 88.9818 202.727 61.0718 202.727C21.3318 202.727 16.4818 205.636 16.4818 207.576C16.4818 209.516 46.5318 215.326 60.1018 217.266C73.6718 219.206 90.1518 217.267 96.9318 218.237C100.962 218.817 107.722 219.386 111.532 218.136C112.182 220.836 112.812 223.387 113.382 225.727C107.172 225.197 92.1718 224.047 79.4718 224.047C62.9918 224.047 60.0818 216.296 46.5118 217.266C32.9418 218.236 31.9718 221.146 31.9718 223.087C31.9718 225.027 51.3617 224.057 77.5317 232.777C97.2617 239.357 109.272 232.157 113.992 228.217C115.512 234.307 116.672 238.737 117.272 240.527C120.182 249.247 122.122 273.487 122.122 273.487C122.122 273.487 122.122 281.237 125.032 281.237C127.942 281.237 127.942 263.787 124.062 245.377C123.442 242.447 122.412 237.627 121.092 231.537C124.192 230.227 120.062 226.236 142.482 217.266C166.742 207.556 199.702 182.357 194.852 180.417Z" fill="#A85F26"/>
<path d="M54.3116 64.1065C40.7416 53.4465 18.4516 39.8765 11.6616 43.7565C11.6616 43.7565 16.5116 42.7865 31.0516 58.2965C45.5916 73.8065 65.9417 79.6165 71.7617 72.8365C71.7517 72.8265 67.8816 74.7665 54.3116 64.1065Z" fill="#A85F26"/>
</svg>
