<svg width="150" height="177" viewBox="0 0 150 177" fill="none" xmlns="http://www.w3.org/2000/svg">
<path d="M23.7156 12.4021L33.7886 15.8052C34.5504 16.0645 34.9556 16.7127 34.9961 17.3771C35.0447 18.1225 34.6395 18.9004 33.7886 19.192L23.7156 22.5951C23.1889 22.7733 22.7756 23.1866 22.5973 23.7132L19.1937 33.7846C18.9182 34.5949 18.2131 35 17.5 35C16.7868 35 16.0818 34.5949 15.8063 33.7846L12.4027 23.7132C12.2244 23.1866 11.8111 22.7733 11.2844 22.5951L1.21137 19.192C0.441506 18.9328 0.0444275 18.2846 0.0039085 17.612C-0.0447143 16.8666 0.360468 16.0888 1.21137 15.8052L11.2844 12.4021C11.8111 12.2239 12.2244 11.8107 12.4027 11.284L15.8063 1.2126C16.0575 0.45907 16.6896 0.0539281 17.3541 0.00531313C18.1078 -0.0514044 18.902 0.345635 19.1937 1.2126L22.5973 11.284C22.7756 11.8026 23.1889 12.2239 23.7156 12.4021Z" fill="#FF941C"/>
<path d="M144.099 161.946C113.229 161.946 88.2036 136.898 88.2036 106C88.2036 75.1017 113.229 50.0535 144.099 50.0535C146.094 50.0535 148.061 50.1665 150 50.3643C137.897 40.7463 122.594 35 105.935 35C66.7641 35 35 66.7837 35 106C35 145.216 66.7547 177 105.935 177C122.584 177 137.897 171.254 150 161.636C148.061 161.833 146.094 161.946 144.099 161.946Z" fill="#232323"/>
</svg>
