<svg width="44" height="44" viewBox="0 0 44 44" fill="none" xmlns="http://www.w3.org/2000/svg">
<path d="M29.2648 15.3066L41.6948 19.5066C42.6348 19.8266 43.1348 20.6266 43.1848 21.4466C43.2448 22.3666 42.7448 23.3266 41.6948 23.6866L29.2648 27.8866C28.6148 28.1066 28.1048 28.6166 27.8848 29.2666L23.6848 41.6966C23.3448 42.6966 22.4748 43.1966 21.5948 43.1966C20.7148 43.1966 19.8448 42.6966 19.5048 41.6966L15.3048 29.2666C15.0848 28.6166 14.5748 28.1066 13.9248 27.8866L1.49481 23.6866C0.544813 23.3666 0.054823 22.5666 0.00482305 21.7366C-0.055177 20.8166 0.444813 19.8566 1.49481 19.5066L13.9248 15.3066C14.5748 15.0866 15.0848 14.5766 15.3048 13.9266L19.5048 1.49658C19.8148 0.566578 20.5948 0.0665574 21.4148 0.00655739C22.3448 -0.0634426 23.3248 0.426578 23.6848 1.49658L27.8848 13.9266C28.1048 14.5666 28.6148 15.0866 29.2648 15.3066Z" fill="white"/>
</svg>
